<svg xmlns="http://www.w3.org/2000/svg" version="1.1" xmlns:xlink="http://www.w3.org/1999/xlink" xmlns:svgjs="http://svgjs.dev/svgjs" width="2000" height="2024" viewBox="0 0 2000 2024"><g transform="matrix(1,0,0,1,0.7309392667945076,20.936905129070965)"><svg viewBox="0 0 324 328" data-background-color="#ffffff" preserveAspectRatio="xMidYMid meet" height="2024" width="2000" xmlns="http://www.w3.org/2000/svg" xmlns:xlink="http://www.w3.org/1999/xlink"><g id="tight-bounds" transform="matrix(1,0,0,1,-0.11841216122070364,0.7844075846242617)"><svg viewBox="0 0 324.2368243224414 327.2" height="327.2" width="324.2368243224414"><g><svg viewBox="0 0 395.52 399.13462719861354" height="327.2" width="324.2368243224414"><g transform="matrix(1,0,0,1,0,264.1250273772481)"><svg viewBox="0 0 395.52 135.00959982136547" height="135.00959982136547" width="395.52"><g id="textblocktransform"><svg viewBox="0 0 395.52 135.00959982136547" height="135.00959982136547" width="395.52" id="textblock"><g><svg viewBox="0 0 395.52 135.00959982136547" height="135.00959982136547" width="395.52"><g transform="matrix(1,0,0,1,0,0)"><svg width="395.52" viewBox="0.12096140554977487 -30.868329999999997 123.81908859445022 42.26528" height="135.00959982136547" data-palette-color="#ef5b2a"><path d="M23.289 2.921l1.75 4.481 4.415-1.393-11.639-36.877-4.72 1.49zM15.982 10.47v0c3.039-0.959 5.367-2.533 6.983-4.72 1.621-2.196 2.172-4.115 1.655-5.755v0l-2.86-1.918c0.514 1.628 0.264 3.307-0.748 5.038-1.012 1.732-2.504 2.909-4.475 3.531v0c-2.098 0.662-3.998 0.423-5.7-0.718-1.702-1.141-3.21-3.793-4.525-7.957v0c-1.314-4.164-1.603-7.205-0.866-9.122 0.739-1.911 2.158-3.198 4.256-3.86v0c1.971-0.622 3.867-0.518 5.688 0.313 1.821 0.83 2.985 2.05 3.493 3.658v0l1.264-3.136c-0.524-1.659-2.079-2.92-4.664-3.782-2.58-0.864-5.389-0.816-8.428 0.144v0c-3.331 1.051-5.465 3.008-6.4 5.868-0.929 2.859-0.645 6.66 0.851 11.403v0c1.499 4.749 3.451 8.034 5.858 9.853 2.414 1.825 5.287 2.211 8.618 1.16zM47.451-12.097v0l4.923-0.681c-0.659-4.768-1.778-8.157-3.354-10.166-1.578-2.016-4.011-2.797-7.3-2.342v0c-3.19 0.441-5.605 1.664-7.246 3.667-1.648 1.998-2.301 4.235-1.959 6.711v0l2.094 1.124c-0.245-1.77 0.137-3.441 1.144-5.014 1.007-1.573 2.561-2.504 4.661-2.795v0c1.842-0.255 3.339 0.272 4.488 1.58 1.15 1.308 2 3.947 2.549 7.916zM28.312-23.18l3.999 28.915 4.923-0.681-3.226-23.328-1.823-5.441zM66.25 3.526v0c1.433 0.047 2.713-0.037 3.841-0.253 1.134-0.216 2.118-0.514 2.951-0.893 0.833-0.373 1.52-0.78 2.061-1.223 0.542-0.442 0.926-0.863 1.153-1.262v0l0.298 3.701 4.158 0.138 0.612-18.56c0.087-2.625-0.313-4.75-1.2-6.373-0.894-1.624-2.231-2.828-4.013-3.615-1.782-0.779-3.969-1.212-6.561-1.297v0c-1.546-0.051-2.997 0.061-4.353 0.337-1.356 0.275-2.572 0.739-3.648 1.39-1.082 0.658-2.002 1.531-2.758 2.62-0.75 1.096-1.281 2.442-1.594 4.04v0l4.834 1.47c0.3-1.618 0.79-2.906 1.468-3.863 0.678-0.951 1.525-1.634 2.539-2.048 1.021-0.407 2.161-0.589 3.42-0.547v0c1.466 0.048 2.724 0.337 3.773 0.865 1.05 0.528 1.844 1.332 2.382 2.41 0.538 1.072 0.779 2.47 0.722 4.196v0l-0.054 1.649-9.525-0.314c-1.526-0.05-2.91 0.044-4.152 0.283-1.242 0.239-2.303 0.668-3.184 1.285-0.881 0.618-1.57 1.476-2.066 2.574-0.496 1.091-0.772 2.473-0.827 4.145v0c-0.057 1.739 0.128 3.189 0.557 4.35 0.429 1.155 1.079 2.073 1.95 2.756 0.878 0.689 1.922 1.187 3.132 1.494 1.217 0.314 2.578 0.495 4.085 0.545zM67.448 0.284v0c-0.84-0.028-1.626-0.137-2.36-0.328-0.734-0.198-1.371-0.512-1.91-0.943-0.546-0.425-0.96-1.012-1.243-1.762-0.275-0.75-0.394-1.714-0.355-2.894v0c0.038-1.153 0.226-2.094 0.564-2.823 0.331-0.729 0.779-1.285 1.346-1.666 0.56-0.382 1.212-0.64 1.956-0.776 0.745-0.129 1.537-0.179 2.377-0.152v0l8.295 0.274-0.251 7.606c-0.3 0.597-0.829 1.17-1.588 1.719-0.759 0.555-1.714 0.997-2.865 1.326-1.151 0.329-2.473 0.469-3.966 0.419zM88.325-24.237l-0.997 29.81 6.575 1.612 11.058-22.216-0.403 24.828 6.526 1.6 12.856-26.903-4.992-1.224-10.431 24.028-0.078-0.019 0.214-26.533-4.954-1.214-12.028 23.656-0.078-0.019 1.724-26.183z" opacity="1" transform="matrix(1,0,0,1,0,0)" fill="#ef5b2a" class="wordmark-text-0" data-fill-palette-color="primary" id="text-0"></path></svg></g></svg></g></svg></g></svg></g><g transform="matrix(1,0,0,1,89.17089369837898,0)"><svg viewBox="0 0 217.17821260324203 218.44553251096931" height="218.44553251096931" width="217.17821260324203"><g><svg xmlns="http://www.w3.org/2000/svg" xmlns:xlink="http://www.w3.org/1999/xlink" version="1.1" x="0" y="0" viewBox="13.264519071464113 13.216435389406572 62.81252397229638 63.17905964422455" enable-background="new 0 0 90 90" xml:space="preserve" height="218.44553251096931" width="217.17821260324203" class="icon-icon-0" data-fill-palette-color="accent" id="icon-0"><g fill="#301c3b" data-fill-palette-color="accent"><path d="M75.039 19.69L69.605 14.253A3.556 3.556 0 0 0 64.585 14.254L27.392 51.445A1.625 1.625 0 0 0 29.69 53.744L66.885 16.553A0.3 0.3 0 0 1 67.309 16.553L72.742 21.987A0.3 0.3 0 0 1 72.743 22.411L27.068 68.08 17.62 71.96 21.393 61.918A1.624 1.624 0 0 0 20.443 59.825 1.62 1.62 0 0 0 18.351 60.775L13.368 74.034A1.63 1.63 0 0 0 13.74 75.756L13.905 75.921A1.63 1.63 0 0 0 15.672 76.274L28.601 70.962C28.82 70.873 29.004 70.734 29.157 70.576 29.166 70.564 29.178 70.562 29.188 70.555L75.039 24.707A3.55 3.55 0 0 0 75.039 19.69" fill="#301c3b" data-fill-palette-color="accent"></path></g></svg></g></svg></g><g></g></svg></g><defs></defs></svg><rect width="324.2368243224414" height="327.2" fill="none" stroke="none" visibility="hidden"></rect></g></svg></g></svg>